{
    "asset" : {
        "generator" : "Khronos glTF Blender I/O v1.2.75",
        "version" : "2.0"
    },
    "scene" : 0,
    "scenes" : [
        {
            "name" : "Scene",
            "nodes" : [
                0,
                1,
                2,
                3,
                4,
                5,
                6,
                7
            ]
        }
    ],
    "nodes" : [
        {
            "name" : "Light",
            "rotation" : [
                0.16907575726509094,
                0.7558803558349609,
                -0.27217137813568115,
                0.570947527885437
            ],
            "translation" : [
                4.182699680328369,
                4.383172512054443,
                4.0761847496032715
            ]
        },
        {
            "name" : "Camera",
            "rotation" : [
                0.5575874447822571,
                0.3988492786884308,
                -0.3476892113685608,
                0.639630913734436
            ],
            "translation" : [
                13.929381370544434,
                2.62595796585083,
                7.3138427734375
            ]
        },
        {
            "mesh" : 0,
            "name" : "ground",
            "scale" : [
                2.0378541946411133,
                3.463531970977783,
                3.463531970977783
            ],
            "translation" : [
                0.4624953269958496,
                -0.01590186357498169,
                0.8211773037910461
            ]
        },
        {
            "mesh" : 1,
            "name" : "wall left",
            "rotation" : [
                0,
                0,
                0.70710688829422,
                -0.7071066498756409
            ],
            "scale" : [
                1.3793103694915771,
                3.463531970977783,
                3.463531970977783
            ],
            "translation" : [
                2.4864583015441895,
                1.3472843170166016,
                0.8211773037910461
            ]
        },
        {
            "mesh" : 2,
            "name" : "wall back",
            "rotation" : [
                0.7071067690849304,
                0,
                0,
                0.7071067690849304
            ],
            "scale" : [
                -2.206472158432007,
                3.463531970977783,
                3.463531970977783
            ],
            "translation" : [
                0.5459864735603333,
                0.0017042756080627441,
                -2.6423544883728027
            ]
        },
        {
            "mesh" : 3,
            "name" : "Cube",
            "scale" : [
                0.34504812955856323,
                0.34504812955856323,
                0.34504812955856323
            ],
            "translation" : [
                0.3217620849609375,
                0.31891489028930664,
                -0.9550143480300903
            ]
        },
        {
            "mesh" : 4,
            "name" : "Sphere",
            "scale" : [
                0.22832231223583221,
                0.22832231223583221,
                0.22832231223583221
            ],
            "translation" : [
                -0.2087441086769104,
                0.8922853469848633,
                3.215036630630493
            ]
        },
        {
            "mesh" : 5,
            "name" : "wall left.001",
            "rotation" : [
                0,
                0,
                0.70710688829422,
                -0.7071066498756409
            ],
            "scale" : [
                1.3793103694915771,
                3.463531970977783,
                3.463531970977783
            ],
            "translation" : [
                -1.576707124710083,
                1.3472843170166016,
                0.8211773037910461
            ]
        }
    ],
    "materials" : [
        {
            "doubleSided" : true,
            "emissiveFactor" : [
                0,
                0,
                0
            ],
            "name" : "Material",
            "pbrMetallicRoughness" : {
                "baseColorFactor" : [
                    0.800000011920929,
                    0.800000011920929,
                    0.800000011920929,
                    1
                ],
                "metallicFactor" : 0,
                "roughnessFactor" : 0.5
            }
        }
    ],
    "meshes" : [
        {
            "name" : "Plane",
            "primitives" : [
                {
                    "attributes" : {
                        "POSITION" : 0,
                        "NORMAL" : 1,
                        "TEXCOORD_0" : 2
                    },
                    "indices" : 3,
                    "material" : 0
                }
            ]
        },
        {
            "name" : "Plane.001",
            "primitives" : [
                {
                    "attributes" : {
                        "POSITION" : 4,
                        "NORMAL" : 5,
                        "TEXCOORD_0" : 6
                    },
                    "indices" : 7,
                    "material" : 0
                }
            ]
        },
        {
            "name" : "Plane.003",
            "primitives" : [
                {
                    "attributes" : {
                        "POSITION" : 8,
                        "NORMAL" : 9,
                        "TEXCOORD_0" : 10
                    },
                    "indices" : 3,
                    "material" : 0
                }
            ]
        },
        {
            "name" : "Cube",
            "primitives" : [
                {
                    "attributes" : {
                        "POSITION" : 11,
                        "NORMAL" : 12,
                        "TEXCOORD_0" : 13
                    },
                    "indices" : 14
                }
            ]
        },
        {
            "name" : "Sphere",
            "primitives" : [
                {
                    "attributes" : {
                        "POSITION" : 15,
                        "NORMAL" : 16,
                        "TEXCOORD_0" : 17
                    },
                    "indices" : 18
                }
            ]
        },
        {
            "name" : "Plane.002",
            "primitives" : [
                {
                    "attributes" : {
                        "POSITION" : 19,
                        "NORMAL" : 20,
                        "TEXCOORD_0" : 21
                    },
                    "indices" : 3,
                    "material" : 0
                }
            ]
        }
    ],
    "accessors" : [
        {
            "bufferView" : 0,
            "componentType" : 5126,
            "count" : 4,
            "max" : [
                1,
                0,
                1
            ],
            "min" : [
                -0.9982008337974548,
                -0.004655390977859497,
                -1
            ],
            "type" : "VEC3"
        },
        {
            "bufferView" : 1,
            "componentType" : 5126,
            "count" : 4,
            "type" : "VEC3"
        },
        {
            "bufferView" : 2,
            "componentType" : 5126,
            "count" : 4,
            "type" : "VEC2"
        },
        {
            "bufferView" : 3,
            "componentType" : 5123,
            "count" : 6,
            "type" : "SCALAR"
        },
        {
            "bufferView" : 4,
            "componentType" : 5126,
            "count" : 32,
            "max" : [
                1,
                0,
                1
            ],
            "min" : [
                -1,
                -2.993302672393838e-08,
                -1
            ],
            "type" : "VEC3"
        },
        {
            "bufferView" : 5,
            "componentType" : 5126,
            "count" : 32,
            "type" : "VEC3"
        },
        {
            "bufferView" : 6,
            "componentType" : 5126,
            "count" : 32,
            "type" : "VEC2"
        },
        {
            "bufferView" : 7,
            "componentType" : 5123,
            "count" : 48,
            "type" : "SCALAR"
        },
        {
            "bufferView" : 8,
            "componentType" : 5126,
            "count" : 4,
            "max" : [
                0.9597578644752502,
                1.3369473528257458e-08,
                0.009738681837916374
            ],
            "min" : [
                -0.8857410550117493,
                -1.0988728149641247e-07,
                -0.7867375016212463
            ],
            "type" : "VEC3"
        },
        {
            "bufferView" : 9,
            "componentType" : 5126,
            "count" : 4,
            "type" : "VEC3"
        },
        {
            "bufferView" : 10,
            "componentType" : 5126,
            "count" : 4,
            "type" : "VEC2"
        },
        {
            "bufferView" : 11,
            "componentType" : 5126,
            "count" : 24,
            "max" : [
                1,
                1,
                1
            ],
            "min" : [
                -1,
                -1,
                -1
            ],
            "type" : "VEC3"
        },
        {
            "bufferView" : 12,
            "componentType" : 5126,
            "count" : 24,
            "type" : "VEC3"
        },
        {
            "bufferView" : 13,
            "componentType" : 5126,
            "count" : 24,
            "type" : "VEC2"
        },
        {
            "bufferView" : 14,
            "componentType" : 5123,
            "count" : 36,
            "type" : "SCALAR"
        },
        {
            "bufferView" : 15,
            "componentType" : 5126,
            "count" : 559,
            "max" : [
                1.000000238418579,
                1,
                1.0000003576278687
            ],
            "min" : [
                -0.9999998211860657,
                -1,
                -1
            ],
            "type" : "VEC3"
        },
        {
            "bufferView" : 16,
            "componentType" : 5126,
            "count" : 559,
            "type" : "VEC3"
        },
        {
            "bufferView" : 17,
            "componentType" : 5126,
            "count" : 559,
            "type" : "VEC2"
        },
        {
            "bufferView" : 18,
            "componentType" : 5123,
            "count" : 2880,
            "type" : "SCALAR"
        },
        {
            "bufferView" : 19,
            "componentType" : 5126,
            "count" : 4,
            "max" : [
                1,
                0,
                1
            ],
            "min" : [
                -1,
                0,
                -1
            ],
            "type" : "VEC3"
        },
        {
            "bufferView" : 20,
            "componentType" : 5126,
            "count" : 4,
            "type" : "VEC3"
        },
        {
            "bufferView" : 21,
            "componentType" : 5126,
            "count" : 4,
            "type" : "VEC2"
        }
    ],
    "bufferViews" : [
        {
            "buffer" : 0,
            "byteLength" : 48,
            "byteOffset" : 0
        },
        {
            "buffer" : 0,
            "byteLength" : 48,
            "byteOffset" : 48
        },
        {
            "buffer" : 0,
            "byteLength" : 32,
            "byteOffset" : 96
        },
        {
            "buffer" : 0,
            "byteLength" : 12,
            "byteOffset" : 128
        },
        {
            "buffer" : 0,
            "byteLength" : 384,
            "byteOffset" : 140
        },
        {
            "buffer" : 0,
            "byteLength" : 384,
            "byteOffset" : 524
        },
        {
            "buffer" : 0,
            "byteLength" : 256,
            "byteOffset" : 908
        },
        {
            "buffer" : 0,
            "byteLength" : 96,
            "byteOffset" : 1164
        },
        {
            "buffer" : 0,
            "byteLength" : 48,
            "byteOffset" : 1260
        },
        {
            "buffer" : 0,
            "byteLength" : 48,
            "byteOffset" : 1308
        },
        {
            "buffer" : 0,
            "byteLength" : 32,
            "byteOffset" : 1356
        },
        {
            "buffer" : 0,
            "byteLength" : 288,
            "byteOffset" : 1388
        },
        {
            "buffer" : 0,
            "byteLength" : 288,
            "byteOffset" : 1676
        },
        {
            "buffer" : 0,
            "byteLength" : 192,
            "byteOffset" : 1964
        },
        {
            "buffer" : 0,
            "byteLength" : 72,
            "byteOffset" : 2156
        },
        {
            "buffer" : 0,
            "byteLength" : 6708,
            "byteOffset" : 2228
        },
        {
            "buffer" : 0,
            "byteLength" : 6708,
            "byteOffset" : 8936
        },
        {
            "buffer" : 0,
            "byteLength" : 4472,
            "byteOffset" : 15644
        },
        {
            "buffer" : 0,
            "byteLength" : 5760,
            "byteOffset" : 20116
        },
        {
            "buffer" : 0,
            "byteLength" : 48,
            "byteOffset" : 25876
        },
        {
            "buffer" : 0,
            "byteLength" : 48,
            "byteOffset" : 25924
        },
        {
            "buffer" : 0,
            "byteLength" : 32,
            "byteOffset" : 25972
        }
    ],
    "buffers" : [
        {
            "byteLength" : 26004,
            "uri" : "data:application/octet-stream;base64,"
        }
    ]
}
